<?xml version="1.0" encoding="iso-8859-1"?>
<!-- Generator: Adobe Illustrator 19.0.0, SVG Export Plug-In . SVG Version: 6.00 Build 0)  -->
<svg version="1.1" id="Capa_1" xmlns="http://www.w3.org/2000/svg" xmlns:xlink="http://www.w3.org/1999/xlink" x="0px" y="0px"
	 viewBox="0 0 512.007 512.007" style="enable-background:new 0 0 512.007 512.007;" xml:space="preserve">
<path style="fill:#795548;" d="M510.606,278.947c-6.976-67.424-39.648-133.408-92-185.76
	C309.582-15.773,147.918-31.486,58.254,58.275c-89.728,89.728-74.048,251.328,34.944,360.32c52.352,52.352,118.336,85.024,185.76,92
	c8.992,0.928,17.856,1.408,26.592,1.408c57.984,0,109.824-20.32,148-58.496C497.454,409.634,517.742,347.618,510.606,278.947z"/>
<path style="fill:#5D4037;" d="M63.854,63.843c29.824,35.968,51.84,77.056,88.448,107.168
	c39.008,32.064,81.952,43.744,129.12,57.408c103.552,30.048,154.784,117.6,166.56,219.52
	c-32.288-38.848-56.032-82.432-96.896-113.664c-35.744-27.264-74.464-38.048-116.512-49.568
	C128.718,255.682,76.142,167.363,63.854,63.843z"/>
<g>
</g>
<g>
</g>
<g>
</g>
<g>
</g>
<g>
</g>
<g>
</g>
<g>
</g>
<g>
</g>
<g>
</g>
<g>
</g>
<g>
</g>
<g>
</g>
<g>
</g>
<g>
</g>
<g>
</g>
</svg>
