<?xml version="1.0" encoding="iso-8859-1"?>
<!-- Generator: Adobe Illustrator 16.0.0, SVG Export Plug-In . SVG Version: 6.00 Build 0)  -->
<!DOCTYPE svg PUBLIC "-//W3C//DTD SVG 1.1//EN" "http://www.w3.org/Graphics/SVG/1.1/DTD/svg11.dtd">
<svg version="1.1" id="Capa_1" xmlns="http://www.w3.org/2000/svg" xmlns:xlink="http://www.w3.org/1999/xlink" x="0px" y="0px"
	 width="16.275px" height="16.274px" viewBox="0 0 16.275 16.274" style="enable-background:new 0 0 16.275 16.274;"
	 xml:space="preserve">
<g>
	<g>
		<g>
			<path d="M5.453,7.939c-0.167-0.273-0.37-0.559-0.66-0.868C0.708,3.197,3.486,1.324,3.486,1.324
				c-0.439,1.861,0.05,2.33,2.026,4.616C5.906,6.395,6.171,6.804,6.36,7.179c0.731-0.513,1.502-0.832,2.245-0.972
				C8.511,5.555,8.329,4.883,8.039,4.218C6.82,1.426,4.276-0.158,2.358,0.68C0.44,1.518-0.126,4.46,1.092,7.251
				c0.62,1.419,1.582,2.521,2.63,3.156c0.267-0.611,0.628-1.22,1.095-1.789C5.016,8.372,5.234,8.152,5.453,7.939z"/>
			<path d="M11.882,7.098c-0.701-0.572-1.641-0.717-2.633-0.532C8.505,6.705,7.735,7.024,7.003,7.538
				c-0.312,0.22-0.615,0.478-0.906,0.76C5.878,8.511,5.662,8.731,5.46,8.978c-0.465,0.57-0.827,1.178-1.094,1.79
				c-0.836,1.918-0.686,3.877,0.545,4.881c1.622,1.322,4.498,0.48,6.423-1.881C13.259,11.407,13.504,8.421,11.882,7.098z
				 M8.649,12.309c-1.406,3.491-3.493,2.193-3.493,2.193s1.354-0.057,2.157-2.316c0.14-0.476,0.291-0.879,0.448-1.252
				c0.43-1.021,0.913-1.687,1.396-2.101c1.346-1.156,2.669-0.439,2.669-0.439C9.969,8.856,9.778,9.505,8.649,12.309z"/>
		</g>
		<path d="M10.961,0.393c-1.139,0.836-1.17,2.73-0.068,4.231s2.918,2.041,4.058,1.206c1.139-0.836,1.17-2.73,0.067-4.231
			C13.917,0.097,12.1-0.442,10.961,0.393z M14.283,5.531c0,0,0.227-0.848-1.029-1.64c-3.067-1.681-1.494-3.294-1.494-3.294
			c-0.071,1.212,0.297,1.416,1.828,2.48C15.496,4.403,14.283,5.531,14.283,5.531z"/>
	</g>
</g>
<g>
</g>
<g>
</g>
<g>
</g>
<g>
</g>
<g>
</g>
<g>
</g>
<g>
</g>
<g>
</g>
<g>
</g>
<g>
</g>
<g>
</g>
<g>
</g>
<g>
</g>
<g>
</g>
<g>
</g>
</svg>
