<?xml version="1.0" encoding="iso-8859-1"?>
<!-- Generator: Adobe Illustrator 19.0.0, SVG Export Plug-In . SVG Version: 6.00 Build 0)  -->
<svg version="1.1" id="Capa_1" xmlns="http://www.w3.org/2000/svg" xmlns:xlink="http://www.w3.org/1999/xlink" x="0px" y="0px"
	 viewBox="0 0 512.043 512.043" style="enable-background:new 0 0 512.043 512.043;" xml:space="preserve">
<path style="fill:#8D6E63;" d="M160.982,191.8c4.8-46.368,27.264-91.712,63.264-127.712c74.976-74.912,186.112-85.728,247.744-24
	c61.696,61.664,50.912,172.8-24.032,247.744c-36,36-81.344,58.464-127.712,63.232c-6.176,0.64-12.288,0.96-18.272,0.96
	c-39.872,0-75.488-13.984-101.728-40.224C170.038,281.656,156.086,239,160.982,191.8z"/>
<path style="fill:#6D4C41;" d="M468.15,43.928c-20.512,24.736-35.648,52.96-60.8,73.664c-26.816,22.048-56.32,30.08-88.768,39.488
	c-71.232,20.64-106.432,80.832-114.528,150.912c22.208-26.72,38.528-56.672,66.624-78.144c24.576-18.752,51.168-26.176,80.096-34.08
	C423.542,175.8,459.67,115.096,468.15,43.928z"/>
<path style="fill:#795548;" d="M351.062,351.8c-4.8-46.368-27.264-91.712-63.264-127.712c-74.976-74.912-186.112-85.728-247.744-24
	c-61.696,61.664-50.912,172.8,24.032,247.744c36,36,81.344,58.464,127.712,63.232c6.176,0.64,12.288,0.96,18.272,0.96
	c39.872,0,75.488-13.984,101.728-40.224C342.006,441.656,355.958,399,351.062,351.8z"/>
<path style="fill:#5D4037;" d="M43.894,203.928c20.512,24.736,35.648,52.96,60.8,73.664c26.816,22.048,56.32,30.08,88.768,39.488
	c71.2,20.672,106.4,80.864,114.528,150.912c-22.208-26.72-38.528-56.672-66.624-78.144c-24.576-18.752-51.168-26.176-80.096-34.08
	C88.502,335.8,52.374,275.096,43.894,203.928z"/>
<g>
</g>
<g>
</g>
<g>
</g>
<g>
</g>
<g>
</g>
<g>
</g>
<g>
</g>
<g>
</g>
<g>
</g>
<g>
</g>
<g>
</g>
<g>
</g>
<g>
</g>
<g>
</g>
<g>
</g>
</svg>
